<mxfile host="app.diagrams.net" modified="2023-09-22T07:54:28.050Z" agent="Mozilla/5.0 (Windows NT 10.0; Win64; x64; rv:109.0) Gecko/20100101 Firefox/117.0" version="21.8.0" etag="2V2FObMTIx56sU9qxoXh" type="github">
  <diagram name="Pagina-1" id="q4bfzqVO5geBq_YNgqmv">
    <mxGraphModel>
      <root>
        <mxCell id="0" />
        <mxCell id="1" parent="0" />
      </root>
    </mxGraphModel>
  </diagram>
</mxfile>
